<?xml version="1.0" encoding="UTF-8"?>
<svg id="Layer_2" data-name="Layer 2" xmlns="http://www.w3.org/2000/svg" viewBox="0 0 940 940">
  <g id="Layer_1-2" data-name="Layer 1">
    <path d="m652.28,939.91v-361.4c4.89,0,9.45,0,14.01,0,33.93,0,67.86-.05,101.79.12,4.16.02,5.49-1.27,6.06-5.34,2.66-19.23,5.67-38.41,8.6-57.6,3.1-20.36,6.25-40.72,9.37-61.08.8-5.19,1.7-10.37,2.33-15.58.63-5.25.45-5.36-4.76-5.37-31.04-.01-62.07,0-93.11,0-13.68,0-27.36-.06-41.03.11-3,.04-3.75-.89-3.75-3.8.07-36.93-.16-73.86.1-110.78.1-14.52,12.17-32.45,30.7-36.77,4.56-1.06,9.33-1.72,14.01-1.73,31.69-.1,63.39.02,95.08.06.91,0,1.82-.08,3-.14v-150.46c-1.89,0-3.54,0-5.19,0-30.64-.02-61.29-.23-91.93,0-30.81.24-60.79,5.13-88.59,19.14-50.89,25.64-84.72,65.74-100.83,120.52-5.12,17.4-7,35.16-6.84,53.31.32,35.61.04,71.23.21,106.84.02,3.81-2.02,3.61-4.43,3.62-26.7.05-53.39.09-80.09.11-10.78,0-21.57-.05-32.35-.07-1.54,0-3.08,0-4.87,0,0,3.72,0,6.96,0,10.2,0,43.63.04,87.26-.11,130.89-.01,3.84,1.81,3.93,4.57,3.92,30.51-.06,61.02-.08,91.53-.1,8.28,0,16.55,0,25.34,0v361.39c-1.9,0-3.31,0-4.73,0-127.97,0-255.93-.1-383.9.1-35.31.05-64.25-13.49-86.95-39.86C8.72,880.6.07,857.42.07,831.4c0-136.68.05-273.36.08-410.04C.17,318.07.61,214.77,0,111.47-.29,61.09,35.54,13.84,88.27,2.7c5.36-1.13,10.96-1.23,16.46-1.56,8-.49,16.01-1.08,24.01-1.08C357.85,0,586.95-.07,816.06.16c19.24.02,38.55,1.2,56.71,9.38,23.9,10.77,41.83,27.6,54.34,50.55,9.79,17.97,12.77,37.35,12.79,57.4.05,53.88-.01,107.76-.01,161.65,0,181.1-.05,362.2.12,543.3.02,26.69-5.7,51.46-22.25,72.75-21.92,28.19-50.53,44.45-86.83,44.64-57.73.31-115.47.07-173.21.07-1.56,0-3.12,0-5.43,0Z"/>
  </g>
</svg>