<?xml version="1.0" encoding="UTF-8"?>
<svg id="Layer_2" data-name="Layer 2" xmlns="http://www.w3.org/2000/svg" viewBox="0 0 940 940">
  <defs>
    <style>
      .cls-1 {
        fill: #fff;
      }
    </style>
  </defs>
  <g id="Layer_1-2" data-name="Layer 1">
    <g>
      <rect width="940" height="940" rx="109.49" ry="109.49"/>
      <g>
        <path class="cls-1" d="m607.01,817h-274.51c-55.89,0-108.57-21.9-148.33-61.66-39.76-39.76-61.66-92.44-61.66-148.33v-274.51c0-55.89,21.9-108.57,61.66-148.33,39.76-39.76,92.44-61.66,148.33-61.66h274.51c55.89,0,108.57,21.9,148.33,61.66,39.76,39.76,61.66,92.44,61.66,148.33v274.51c0,55.89-21.9,108.57-61.66,148.33-39.76,39.76-92.44,61.66-148.33,61.66ZM332.49,182.5c-39.87,0-77.48,15.66-105.91,44.09-28.43,28.43-44.09,66.04-44.09,105.91v274.51c0,39.87,15.66,77.48,44.09,105.91,28.43,28.43,66.04,44.09,105.91,44.09h274.51c39.87,0,77.48-15.66,105.91-44.09,28.43-28.43,44.09-66.04,44.09-105.91v-274.51c0-39.87-15.66-77.48-44.09-105.91-28.43-28.43-66.04-44.09-105.91-44.09h-274.51Z"/>
        <path class="cls-1" d="m469.94,637.45c-92.36,0-167.51-75.14-167.51-167.51s75.14-167.51,167.51-167.51,167.51,75.14,167.51,167.51-75.14,167.51-167.51,167.51Zm0-275.01c-59.28,0-107.51,48.23-107.51,107.51s48.23,107.51,107.51,107.51,107.51-48.23,107.51-107.51-48.23-107.51-107.51-107.51Z"/>
        <g>
          <circle class="cls-1" cx="656.69" cy="290.53" r="29.17"/>
          <path class="cls-1" d="m656.69,333.69c-23.8,0-43.17-19.37-43.17-43.17s19.37-43.17,43.17-43.17,43.17,19.37,43.17,43.17-19.37,43.17-43.17,43.17Zm0-58.34c-8.36,0-15.17,6.8-15.17,15.17s6.8,15.17,15.17,15.17,15.17-6.8,15.17-15.17-6.8-15.17-15.17-15.17Z"/>
        </g>
      </g>
    </g>
  </g>
</svg>