<?xml version="1.0" encoding="UTF-8"?>
<svg id="Layer_2" data-name="Layer 2" xmlns="http://www.w3.org/2000/svg" viewBox="0 0 940 940">
  <g id="Layer_1-2" data-name="Layer 1">
    <g>
      <circle cx="469.94" cy="469.94" r="107.51"/>
      <path d="m830.51,0H109.49C49.27,0,0,49.27,0,109.49v721.01c0,60.22,49.27,109.49,109.49,109.49h721.01c60.22,0,109.49-49.27,109.49-109.49V109.49c0-60.22-49.27-109.49-109.49-109.49Zm-13.51,607.01c0,55.89-21.9,108.57-61.66,148.33-39.76,39.76-92.44,61.66-148.33,61.66h-274.51c-55.89,0-108.57-21.9-148.33-61.66-39.76-39.76-61.66-92.44-61.66-148.33v-274.51c0-55.89,21.9-108.57,61.66-148.33,39.76-39.76,92.44-61.66,148.33-61.66h274.51c55.89,0,108.57,21.9,148.33,61.66,39.76,39.76,61.66,92.44,61.66,148.33v274.51Z"/>
      <path d="m607.01,182.5h-274.51c-39.87,0-77.48,15.66-105.91,44.09-28.43,28.43-44.09,66.04-44.09,105.91v274.51c0,39.87,15.66,77.48,44.09,105.91,28.43,28.43,66.04,44.09,105.91,44.09h274.51c39.87,0,77.48-15.66,105.91-44.09,28.43-28.43,44.09-66.04,44.09-105.91v-274.51c0-39.87-15.66-77.48-44.09-105.91-28.43-28.43-66.04-44.09-105.91-44.09Zm-137.07,454.95c-92.36,0-167.51-75.14-167.51-167.51s75.14-167.51,167.51-167.51,167.51,75.14,167.51,167.51-75.14,167.51-167.51,167.51Zm186.75-303.75c-23.8,0-43.17-19.37-43.17-43.17s19.37-43.17,43.17-43.17,43.17,19.37,43.17,43.17-19.37,43.17-43.17,43.17Z"/>
    </g>
  </g>
</svg>